<?xml version="1.0" encoding="UTF-8"?>

<!--
  - iparapheur
  - Copyright (C) 2019-2022 Libriciel SCOP
  -
  - This program is free software: you can redistribute it and/or modify
  - it under the terms of the GNU Affero General Public License as published by
  - the Free Software Foundation, either version 3 of the License, or
  - (at your option) any later version.
  -
  - This program is distributed in the hope that it will be useful,
  - but WITHOUT ANY WARRANTY; without even the implied warranty of
  - MERCHANTABILITY or FITNESS FOR A PARTICULAR PURPOSE.  See the
  - GNU Affero General Public License for more details.
  -
  - You should have received a copy of the GNU Affero General Public License
  - along with this program. If not, see <http://www.gnu.org/licenses/>.
  -->

<svg id="Calque_2" xmlns="http://www.w3.org/2000/svg" viewBox="0 0 535.68 100"><defs><style>.cls-1{fill:#3db5bc;}.cls-2{fill:#2d2d2d;}</style></defs><g id="Calque_1-2"><g><path class="cls-1" d="M18.52,10.2c0,2.85-.92,5.08-2.76,6.71s-4,2.45-6.5,2.45-4.67-.82-6.5-2.45c-1.84-1.63-2.76-3.87-2.76-6.71S.92,5.12,2.76,3.49c1.84-1.63,4.01-2.45,6.5-2.45s4.66,.82,6.5,2.45,2.76,3.87,2.76,6.71Zm-1.46,70.55H1.56V26.01h15.51v54.73Z"/><path class="cls-1" d="M83.97,53.38c0,4.23-.52,8.08-1.56,11.55-1.04,3.47-2.57,6.45-4.58,8.95-2.01,2.5-4.51,4.44-7.49,5.83-2.98,1.39-6.42,2.08-10.3,2.08-2.15,0-4.16-.21-6.04-.62s-3.68-1.01-5.41-1.77v20.6h-15.5V27.89c1.39-.41,2.98-.81,4.79-1.2,1.8-.38,3.69-.71,5.67-.99,1.98-.28,3.99-.5,6.04-.68,2.04-.17,4.01-.26,5.88-.26,4.51,0,8.53,.68,12.07,2.03,3.54,1.35,6.52,3.26,8.95,5.72,2.43,2.46,4.28,5.46,5.57,9,1.28,3.54,1.92,7.49,1.92,11.86Zm-15.82,.41c0-4.79-1.07-8.62-3.22-11.5-2.15-2.88-5.34-4.32-9.57-4.32-1.39,0-2.67,.05-3.85,.16-1.18,.1-2.15,.23-2.91,.36v27.99c.97,.62,2.24,1.14,3.8,1.56,1.56,.41,3.14,.62,4.73,.62,7.35,0,11.03-4.96,11.03-14.88Z"/><path class="cls-2" d="M115.6,24.56c4.58,0,8.39,.52,11.45,1.56,3.05,1.04,5.5,2.53,7.34,4.48,1.84,1.94,3.14,4.3,3.9,7.08,.76,2.78,1.14,5.86,1.14,9.26v32.26c-2.22,.48-5.31,1.06-9.26,1.72-3.95,.66-8.74,.99-14.36,.99-3.54,0-6.75-.31-9.62-.94-2.88-.62-5.36-1.65-7.44-3.07-2.08-1.42-3.68-3.28-4.79-5.57-1.11-2.29-1.67-5.1-1.67-8.43s.64-5.9,1.92-8.12c1.28-2.22,3-3.99,5.15-5.31,2.15-1.32,4.61-2.27,7.39-2.86,2.77-.59,5.65-.89,8.64-.89,2.01,0,3.8,.09,5.36,.26,1.56,.17,2.83,.4,3.8,.68v-1.46c0-2.63-.8-4.75-2.39-6.35-1.6-1.6-4.37-2.39-8.32-2.39-2.64,0-5.24,.19-7.81,.57s-4.79,.92-6.66,1.61l-1.98-12.49c.9-.28,2.03-.57,3.38-.88,1.35-.31,2.83-.59,4.42-.83,1.6-.24,3.28-.45,5.05-.62,1.77-.17,3.55-.26,5.36-.26Zm1.25,45.37c1.52,0,2.98-.03,4.37-.1s2.5-.17,3.33-.31v-11.76c-.62-.14-1.56-.28-2.81-.42-1.25-.14-2.39-.21-3.43-.21-1.46,0-2.83,.09-4.11,.26-1.28,.18-2.41,.5-3.38,.99-.97,.49-1.73,1.14-2.29,1.98-.56,.83-.83,1.87-.83,3.12,0,2.43,.82,4.11,2.45,5.05,1.63,.94,3.87,1.41,6.71,1.41Z"/><path class="cls-2" d="M186.46,39.75c-1.39-.35-3.02-.71-4.89-1.09-1.87-.38-3.88-.57-6.03-.57-.97,0-2.13,.09-3.49,.26-1.35,.17-2.38,.36-3.07,.57v41.83h-15.5V28.93c2.77-.97,6.05-1.89,9.83-2.76,3.78-.87,8-1.3,12.64-1.3,.83,0,1.84,.05,3.02,.16,1.18,.11,2.36,.25,3.54,.42,1.18,.17,2.36,.38,3.54,.62,1.18,.24,2.19,.54,3.02,.89l-2.6,12.8Z"/><path class="cls-2" d="M216.02,24.56c4.58,0,8.39,.52,11.45,1.56,3.05,1.04,5.5,2.53,7.34,4.48,1.84,1.94,3.14,4.3,3.9,7.08,.76,2.78,1.14,5.86,1.14,9.26v32.26c-2.22,.48-5.31,1.06-9.26,1.72-3.95,.66-8.74,.99-14.36,.99-3.54,0-6.75-.31-9.62-.94-2.88-.62-5.36-1.65-7.44-3.07-2.08-1.42-3.68-3.28-4.79-5.57-1.11-2.29-1.67-5.1-1.67-8.43s.64-5.9,1.93-8.12c1.28-2.22,3-3.99,5.15-5.31s4.61-2.27,7.39-2.86c2.77-.59,5.65-.89,8.64-.89,2.01,0,3.8,.09,5.36,.26s2.83,.4,3.8,.68v-1.46c0-2.63-.8-4.75-2.39-6.35s-4.37-2.39-8.32-2.39c-2.64,0-5.24,.19-7.8,.57-2.57,.38-4.79,.92-6.66,1.61l-1.98-12.49c.9-.28,2.03-.57,3.38-.88,1.35-.31,2.83-.59,4.42-.83,1.6-.24,3.28-.45,5.05-.62,1.77-.17,3.55-.26,5.36-.26Zm1.25,45.37c1.53,0,2.98-.03,4.37-.1,1.39-.07,2.5-.17,3.33-.31v-11.76c-.62-.14-1.56-.28-2.81-.42-1.25-.14-2.39-.21-3.43-.21-1.46,0-2.83,.09-4.11,.26-1.28,.18-2.41,.5-3.38,.99-.97,.49-1.74,1.14-2.29,1.98-.56,.83-.83,1.87-.83,3.12,0,2.43,.81,4.11,2.45,5.05,1.63,.94,3.87,1.41,6.71,1.41Z"/><path class="cls-2" d="M304.78,53.38c0,4.23-.52,8.08-1.56,11.55-1.04,3.47-2.57,6.45-4.58,8.95-2.01,2.5-4.51,4.44-7.49,5.83-2.98,1.39-6.42,2.08-10.3,2.08-2.15,0-4.16-.21-6.04-.62s-3.68-1.01-5.41-1.77v20.6h-15.5V27.89c1.39-.41,2.98-.81,4.79-1.2,1.8-.38,3.69-.71,5.67-.99,1.98-.28,3.99-.5,6.04-.68,2.04-.17,4.01-.26,5.88-.26,4.51,0,8.53,.68,12.07,2.03,3.54,1.35,6.52,3.26,8.95,5.72,2.43,2.46,4.28,5.46,5.57,9,1.28,3.54,1.92,7.49,1.92,11.86Zm-15.82,.41c0-4.79-1.07-8.62-3.22-11.5-2.15-2.88-5.34-4.32-9.57-4.32-1.39,0-2.67,.05-3.85,.16-1.18,.1-2.15,.23-2.91,.36v27.99c.97,.62,2.24,1.14,3.8,1.56,1.56,.41,3.14,.62,4.73,.62,7.35,0,11.03-4.96,11.03-14.88Z"/><path class="cls-2" d="M316.74,80.75V2.5l15.5-2.5V26.22c1.04-.35,2.38-.68,4.01-.99,1.63-.31,3.21-.47,4.73-.47,4.44,0,8.13,.61,11.08,1.82,2.95,1.21,5.31,2.93,7.08,5.15s3.02,4.86,3.75,7.91c.73,3.05,1.09,6.45,1.09,10.2v30.9h-15.5v-29.03c0-5-.64-8.53-1.93-10.61-1.28-2.08-3.66-3.12-7.13-3.12-1.39,0-2.69,.12-3.9,.36-1.21,.24-2.31,.5-3.28,.78v41.62h-15.5Z"/><path class="cls-2" d="M375.43,53.8c0-4.85,.75-9.1,2.24-12.75,1.49-3.64,3.45-6.68,5.88-9.11s5.22-4.27,8.38-5.51,6.4-1.87,9.73-1.87c7.77,0,13.91,2.38,18.42,7.13,4.51,4.75,6.76,11.74,6.76,20.97,0,.9-.04,1.89-.1,2.97-.07,1.08-.14,2.03-.21,2.86h-35.17c.35,3.19,1.84,5.72,4.48,7.6,2.63,1.87,6.17,2.81,10.61,2.81,2.84,0,5.64-.26,8.38-.78s4.98-1.16,6.71-1.93l2.08,12.59c-.83,.42-1.94,.83-3.33,1.25-1.39,.42-2.93,.78-4.63,1.09-1.7,.31-3.52,.57-5.46,.78-1.94,.21-3.88,.31-5.83,.31-4.93,0-9.21-.73-12.85-2.19-3.64-1.46-6.66-3.45-9.05-5.98s-4.16-5.53-5.31-9c-1.14-3.47-1.72-7.21-1.72-11.24Zm36.42-5.93c-.07-1.32-.3-2.6-.68-3.85-.38-1.25-.97-2.36-1.77-3.33-.8-.97-1.8-1.77-3.02-2.39-1.21-.62-2.72-.94-4.53-.94s-3.22,.3-4.47,.89c-1.25,.59-2.29,1.37-3.12,2.34-.83,.97-1.47,2.1-1.92,3.38-.45,1.28-.78,2.58-.99,3.9h20.5Z"/><path class="cls-2" d="M485.53,78.88c-2.64,.76-6.04,1.48-10.2,2.13s-8.53,.99-13.11,.99-8.52-.62-11.6-1.87-5.53-3-7.34-5.26c-1.8-2.25-3.09-4.94-3.85-8.06-.76-3.12-1.14-6.56-1.14-10.3V26.01h15.51v28.62c0,4.99,.66,8.6,1.98,10.82,1.32,2.22,3.78,3.33,7.39,3.33,1.11,0,2.29-.05,3.54-.16,1.25-.11,2.36-.23,3.33-.36V26.01h15.51v52.86Z"/><path class="cls-2" d="M533.08,39.75c-1.39-.35-3.02-.71-4.89-1.09-1.87-.38-3.88-.57-6.03-.57-.97,0-2.13,.09-3.49,.26-1.35,.17-2.38,.36-3.07,.57v41.83h-15.5V28.93c2.77-.97,6.05-1.89,9.83-2.76,3.78-.87,8-1.3,12.64-1.3,.83,0,1.84,.05,3.02,.16,1.18,.11,2.36,.25,3.54,.42,1.18,.17,2.36,.38,3.54,.62,1.18,.24,2.19,.54,3.02,.89l-2.6,12.8Z"/></g></g></svg>