<!--
  - i-Parapheur
  - Copyright (C) 2019-2022 Libriciel SCOP
  -
  - This program is free software: you can redistribute it and/or modify
  - it under the terms of the GNU Affero General Public License as published by
  - the Free Software Foundation, either version 3 of the License, or
  - (at your option) any later version.
  -
  - This program is distributed in the hope that it will be useful,
  - but WITHOUT ANY WARRANTY; without even the implied warranty of
  - MERCHANTABILITY or FITNESS FOR A PARTICULAR PURPOSE.  See the
  - GNU Affero General Public License for more details.
  -
  - You should have received a copy of the GNU Affero General Public License
  - along with this program. If not, see <http://www.gnu.org/licenses/>.
  -->

<svg xmlns="http://www.w3.org/2000/svg" viewBox="0 0 554.2 100"><defs><style>.cls-1{fill:#3db5bc;}.cls-2{fill:#2d2d2d;}</style></defs><g id="Calque_2" data-name="Calque 2"><g id="Calque_1-2" data-name="Calque 1"><path class="cls-1" d="M18.52,10.2a8.53,8.53,0,0,1-2.75,6.71,9.5,9.5,0,0,1-6.51,2.45,9.46,9.46,0,0,1-6.5-2.45A8.51,8.51,0,0,1,0,10.2,8.49,8.49,0,0,1,2.76,3.49,9.46,9.46,0,0,1,9.26,1a9.5,9.5,0,0,1,6.51,2.45A8.52,8.52,0,0,1,18.52,10.2ZM17.07,80.75H1.56V26H17.07Z"/><path class="cls-1" d="M102.49,53.38a40.14,40.14,0,0,1-1.56,11.55,26,26,0,0,1-4.58,8.95,20.68,20.68,0,0,1-7.49,5.83,24.13,24.13,0,0,1-10.3,2.08,28.21,28.21,0,0,1-6-.62,29.52,29.52,0,0,1-5.41-1.77V100H51.61V27.89c1.38-.42,3-.82,4.78-1.2s3.7-.71,5.67-1,4-.5,6-.68,4-.25,5.88-.25a33.68,33.68,0,0,1,12.07,2,25,25,0,0,1,9,5.73,24.56,24.56,0,0,1,5.57,9A34.67,34.67,0,0,1,102.49,53.38Zm-15.82.42q0-7.19-3.22-11.5T73.88,38c-1.39,0-2.68.05-3.86.16s-2.15.22-2.91.36v28a13.14,13.14,0,0,0,3.8,1.56,18.14,18.14,0,0,0,4.73.63Q86.68,68.68,86.67,53.8Z"/><path class="cls-2" d="M134.12,24.56a35.93,35.93,0,0,1,11.45,1.56,17.83,17.83,0,0,1,7.34,4.47,16.63,16.63,0,0,1,3.9,7.08A35.05,35.05,0,0,1,158,46.93V79.19c-2.22.48-5.3,1.06-9.26,1.72a90.1,90.1,0,0,1-14.36,1,45.78,45.78,0,0,1-9.62-.93,21,21,0,0,1-7.44-3.07,14,14,0,0,1-4.79-5.57,19.22,19.22,0,0,1-1.66-8.43,16,16,0,0,1,1.92-8.11,14.81,14.81,0,0,1,5.15-5.31,23.2,23.2,0,0,1,7.39-2.86,41.37,41.37,0,0,1,8.64-.89,49.75,49.75,0,0,1,5.35.26,24.07,24.07,0,0,1,3.8.68V46.2a8.58,8.58,0,0,0-2.39-6.35q-2.4-2.39-8.32-2.39a53.29,53.29,0,0,0-7.81.57,32.82,32.82,0,0,0-6.66,1.62l-2-12.49c.9-.28,2-.57,3.39-.88s2.82-.59,4.42-.84,3.28-.45,5.05-.62S132.32,24.56,134.12,24.56Zm1.25,45.37c1.53,0,3,0,4.37-.11a30.21,30.21,0,0,0,3.33-.31V57.75c-.62-.14-1.56-.27-2.81-.41a30.4,30.4,0,0,0-7.54,0,10.47,10.47,0,0,0-3.38,1,5.74,5.74,0,0,0-2.29,2,5.51,5.51,0,0,0-.83,3.13c0,2.42.81,4.11,2.44,5A13.48,13.48,0,0,0,135.37,69.93Z"/><path class="cls-2" d="M205,39.75c-1.39-.35-3-.71-4.89-1.09a30.44,30.44,0,0,0-6-.57,27,27,0,0,0-3.49.26,19.71,19.71,0,0,0-3.06.57V80.75H172V28.93a93.71,93.71,0,0,1,9.83-2.76,56.54,56.54,0,0,1,12.65-1.3c.83,0,1.83.05,3,.15s2.36.25,3.54.42,2.36.38,3.54.63a16.16,16.16,0,0,1,3,.88Z"/><path class="cls-2" d="M234.54,24.56A36,36,0,0,1,246,26.12a17.79,17.79,0,0,1,7.33,4.47,16.54,16.54,0,0,1,3.91,7.08,35.05,35.05,0,0,1,1.14,9.26V79.19c-2.22.48-5.31,1.06-9.26,1.72a90.19,90.19,0,0,1-14.36,1,45.87,45.87,0,0,1-9.63-.93,21,21,0,0,1-7.44-3.07,14,14,0,0,1-4.78-5.57,19.08,19.08,0,0,1-1.67-8.43,15.88,15.88,0,0,1,1.93-8.11,14.81,14.81,0,0,1,5.15-5.31,23.23,23.23,0,0,1,7.38-2.86,41.51,41.51,0,0,1,8.64-.89,49.94,49.94,0,0,1,5.36.26,24.29,24.29,0,0,1,3.8.68V46.2a8.62,8.62,0,0,0-2.39-6.35c-1.6-1.59-4.37-2.39-8.33-2.39A53.05,53.05,0,0,0,225,38a32.82,32.82,0,0,0-6.66,1.62l-2-12.49c.9-.28,2-.57,3.38-.88s2.83-.59,4.42-.84,3.28-.45,5.05-.62S232.73,24.56,234.54,24.56Zm1.25,45.37c1.52,0,3,0,4.37-.11a30.21,30.21,0,0,0,3.33-.31V57.75c-.63-.14-1.56-.27-2.81-.41a30.4,30.4,0,0,0-7.54,0,10.53,10.53,0,0,0-3.39,1,5.81,5.81,0,0,0-2.29,2,5.59,5.59,0,0,0-.83,3.13c0,2.42.82,4.11,2.45,5A13.45,13.45,0,0,0,235.79,69.93Z"/><path class="cls-2" d="M323.3,53.38a40.14,40.14,0,0,1-1.56,11.55,26,26,0,0,1-4.58,8.95,20.68,20.68,0,0,1-7.49,5.83,24.13,24.13,0,0,1-10.3,2.08,28.28,28.28,0,0,1-6-.62,29.77,29.77,0,0,1-5.41-1.77V100h-15.5V27.89c1.38-.42,3-.82,4.78-1.2s3.7-.71,5.67-1,4-.5,6-.68,4-.25,5.88-.25a33.68,33.68,0,0,1,12.07,2,25,25,0,0,1,8.95,5.73,24.56,24.56,0,0,1,5.57,9A34.67,34.67,0,0,1,323.3,53.38Zm-15.82.42q0-7.19-3.22-11.5T294.69,38c-1.39,0-2.68.05-3.85.16s-2.16.22-2.92.36v28a13.14,13.14,0,0,0,3.8,1.56,18.16,18.16,0,0,0,4.74.63Q307.49,68.68,307.48,53.8Z"/><path class="cls-2" d="M335.27,80.75V2.5L350.77,0V26.22a35,35,0,0,1,4-1,25.31,25.31,0,0,1,4.73-.46,29.2,29.2,0,0,1,11.09,1.82,17.21,17.21,0,0,1,7.07,5.15,19.89,19.89,0,0,1,3.75,7.91,44.41,44.41,0,0,1,1.09,10.19V80.75H367v-29q0-7.5-1.93-10.62C363.79,39,361.42,38,358,38a19.27,19.27,0,0,0-3.9.37c-1.21.24-2.31.5-3.28.77V80.75Z"/><path class="cls-2" d="M394,53.8a33.49,33.49,0,0,1,2.24-12.75,27.19,27.19,0,0,1,5.88-9.1,24.46,24.46,0,0,1,8.38-5.52,26.21,26.21,0,0,1,9.73-1.87q11.65,0,18.42,7.13t6.76,21c0,.91,0,1.9-.1,3s-.14,2-.21,2.86H409.88a10.29,10.29,0,0,0,4.47,7.6q4,2.81,10.61,2.81a44.82,44.82,0,0,0,8.38-.78,31.09,31.09,0,0,0,6.71-1.93l2.08,12.59A21.43,21.43,0,0,1,438.81,80a42.5,42.5,0,0,1-4.64,1.09c-1.7.31-3.52.58-5.46.78a54.09,54.09,0,0,1-5.83.32A34.43,34.43,0,0,1,410,80a25.07,25.07,0,0,1-9-6,23.91,23.91,0,0,1-5.31-9A35.82,35.82,0,0,1,394,53.8Zm36.43-5.93A16.11,16.11,0,0,0,429.7,44a9.35,9.35,0,0,0-4.79-5.73,9.86,9.86,0,0,0-4.52-.93,10.41,10.41,0,0,0-4.48.88,9.22,9.22,0,0,0-3.12,2.34A10.66,10.66,0,0,0,410.86,44a22.27,22.27,0,0,0-1,3.9Z"/><path class="cls-2" d="M504.05,78.88A87.67,87.67,0,0,1,493.85,81a83.63,83.63,0,0,1-13.11,1,31,31,0,0,1-11.6-1.88,17.6,17.6,0,0,1-7.34-5.25A20.62,20.62,0,0,1,458,66.81a43.64,43.64,0,0,1-1.14-10.31V26h15.5V54.63q0,7.48,2,10.82t7.39,3.33q1.67,0,3.54-.15c1.24-.11,2.35-.23,3.32-.37V26h15.51Z"/><path class="cls-2" d="M551.6,39.75c-1.38-.35-3-.71-4.89-1.09a30.27,30.27,0,0,0-6-.57,26.83,26.83,0,0,0-3.49.26,19.88,19.88,0,0,0-3.07.57V80.75h-15.5V28.93a93.71,93.71,0,0,1,9.83-2.76,56.45,56.45,0,0,1,12.64-1.3c.83,0,1.84.05,3,.15s2.36.25,3.54.42,2.36.38,3.54.63a16,16,0,0,1,3,.88Z"/></g></g></svg>