<!--
  - i-Parapheur
  - Copyright (C) 2019-2021 Libriciel SCOP
  -
  - This program is free software: you can redistribute it and/or modify
  - it under the terms of the GNU Affero General Public License as published by
  - the Free Software Foundation, either version 3 of the License, or
  - (at your option) any later version.
  -
  - This program is distributed in the hope that it will be useful,
  - but WITHOUT ANY WARRANTY; without even the implied warranty of
  - MERCHANTABILITY or FITNESS FOR A PARTICULAR PURPOSE.  See the
  - GNU Affero General Public License for more details.
  -
  - You should have received a copy of the GNU Affero General Public License
  - along with this program. If not, see <http://www.gnu.org/licenses/>.
  -->

<svg id="Calque_1" data-name="Calque 1" xmlns="http://www.w3.org/2000/svg" viewBox="0 0 268.6853 48"><script xmlns=""/><title>i-parapheur</title><path d="M199.355,17.2408a18.5984,18.5984,0,0,1,5.2037-1.8916,12.3149,12.3149,0,0,1,2.5021-.131c3.2252.1689,5.17,1.86,5.3657,5.07.2016,3.3016.094,6.6223.1129,9.9347q.016,2.7995.0006,5.5991c-.01,1.3413-.202,1.5258-1.51,1.5373-3.1691.0278-2.7461.0161-2.7557-2.6808-.0154-4.304.01-8.6082-.025-12.912-.0225-2.776-.7255-3.331-3.4877-2.9626a12.1753,12.1753,0,0,0-4.9948,2.1183c-.51.33-.4085.7594-.409,1.1945q-.0081,6.7989-.0055,13.5979c-.0013,1.5287-.1175,1.6422-1.607,1.6455-2.7256.006-2.6644.1816-2.6634-2.6916q.0045-13.1408.0027-26.2816c0-1.7126.0872-1.7972,1.8081-1.7955,2.4594.0025,2.46.0025,2.4617,2.4449C199.356,11.73,199.355,14.4231,199.355,17.2408Z" transform="translate(-8.6574)" style="fill:#1a181c"/><path d="M254.1684,35.4486a10.5741,10.5741,0,0,1-7.3746,2.6215c-3.5564-.17-5.5846-2.1069-5.6281-5.6745-.0613-5.028-.0117-10.0574-.0416-15.0859-.006-1.0169.37-1.4277,1.4115-1.4157,3.3332.0385,2.7839-.0793,2.8009,2.7287.023,3.81-.0025,7.6194.0123,11.4291a24.5644,24.5644,0,0,0,.1436,2.5061c.1625,1.5228.6562,1.96,2.1986,2.0083,2.6093.0818,4.5087-1.4024,6.3826-2.9251.2579-.17.1947-.7118.1955-1.0791.0087-4.305.0046-8.61.0118-12.9149.0027-1.616.1307-1.7321,1.7714-1.7345,2.5034-.0036,2.5037-.0036,2.5036,2.4912q0,8.629-.0032,17.258c-.0015,1.5682-.1327,1.6893-1.689,1.6978-.19.001-.381,0-.5714,0C254.4844,37.3588,254.4534,37.3328,254.1684,35.4486Z" transform="translate(-8.6574)" style="fill:#1a181c"/><path d="M135.5648,18.0114a13.3421,13.3421,0,0,1,5.1938-2.237,11.5531,11.5531,0,0,1,1.2465-.1124c.8834-.04,1.3841.3275,1.3054,1.2791-.0062.0754.0028.152.0034.2281.0158,2.2823.0165,2.294-2.2032,2.4286a10.7137,10.7137,0,0,0-4.7671,1.3914,1.6266,1.6266,0,0,0-.92,1.6281c.029,4.3748.0153,8.75.0082,13.1249-.0024,1.4974-.1285,1.604-1.6284,1.6193-3.019.0307-2.7419.0125-2.7436-2.7146q-.0052-8.5028.0026-17.0056c.0024-1.6426.1124-1.7339,1.7552-1.7329.1141,0,.2282.0036.3423.0039C135.2463,15.9187,135.2463,15.9187,135.5648,18.0114Z" transform="translate(-8.6574)" style="fill:#1a181c"/><path d="M277.3307,18.2091c-.027-.302-.0016-.6086-.0024-.9131-.0037-1.4716-.2573-1.7134-1.7366-1.6259-.3024.0179-.6023.08-.9028.1248a13.8707,13.8707,0,0,0-5.0947,2.2024,3.1381,3.1381,0,0,1-.0816-.4435c-.0026-.6641-.0078-1.5-.796-1.553-1.1562-.0773-2.4086-.5032-3.4769.3624-.0776.0629-.0239.288-.0312.4376h0c-.0007.2285.0248,19.6434.0023,19.6637.007.8885.3886.8315.8989.8709.5679.0438,1.1411.0241,1.7119.0237,1.5347-.0012,1.6826-.1487,1.6833-1.7052.0019-4.3775.0212-8.7551-.02-13.1322a1.5289,1.5289,0,0,1,.8831-1.5194,10.0864,10.0864,0,0,1,5.5645-1.4053C276.9771,19.6263,277.4235,19.2452,277.3307,18.2091Z" transform="translate(-8.6574)" style="fill:#1a181d"/><path d="M265.2107,36.4644l-.0039-.4567" transform="translate(-8.6574)" style="fill:#181519"/><path d="M98.9486,36.1613l.4784-.39" transform="translate(-8.6574)" style="fill:#ebebeb"/><path d="M188.9561,20.7018c-.6708-3.52-2.8112-5.3866-5.8932-5.47a10.6508,10.6508,0,0,0-4.8388,1.1427c-.9552.4478-1.8868.9461-2.9207,1.4681-.2085-1.85-.286-1.92-1.9691-1.9309-.2284-.0015-.4567,0-.6851.0017-1.5793.0133-1.6616.0947-1.6617,1.6893-.0008,8.7931-.0138,17.5863.0081,26.3794.0066,2.6489-.5726,2.7239,2.7138,2.7063,1.3355-.0072,1.5045-.1688,1.5127-1.52.0137-2.2837.033-4.5681-.0093-6.8511-.0148-.7966.1233-1.08,1.0028-.8487a15.6426,15.6426,0,0,0,5.5509.37c3.7863-.3728,6.5022-2.6082,7.2035-6.2392A28.8275,28.8275,0,0,0,188.9561,20.7018Zm-4.2322,10.0734c-.5839,2.8687-1.9908,3.9044-4.9154,3.7255a20.2011,20.2011,0,0,1-3.8217-.6041.8809.8809,0,0,1-.77-1.0268c.0444-1.7881.0158-3.5781.0158-5.3674h-.0037c0-1.7131.0247-3.4268-.0131-5.139a1.255,1.255,0,0,1,.7222-1.2709,19.1237,19.1237,0,0,1,4.7776-2.1251c2.4772-.6128,3.69.2106,4.0445,2.7211A26.5822,26.5822,0,0,1,184.7239,30.7753Z" transform="translate(-8.6574)" style="fill:#1a181c"/><path d="M101.5367,20.4931c-.9388-4.2007-3.6081-5.8458-7.8432-5.0628a16.43,16.43,0,0,0-5.0322,2.0829c-.5147.29-.8072.42-.7934-.3874.0156-.9115-.5232-1.2774-1.4069-1.2177-.4169.0281-.8371.006-1.2558.01-1.45.0122-1.5491.1093-1.5494,1.564-.0017,8.8312-.02,17.6625.0085,26.4937.0083,2.6081-.6748,2.7412,2.6935,2.7109,1.3718-.0123,1.5266-.179,1.5252-1.6208-.0021-2.2077.0233-4.4161-.0181-6.6231-.0158-.8406.0276-1.1755,1.0929-.9515,3.46.7276,6.8858.7932,9.9908-1.3294a8.2716,8.2716,0,0,0,2.662-4.4454A28.8083,28.8083,0,0,0,101.5367,20.4931ZM97.2993,31.1682a6.15,6.15,0,0,1-1.2782,2.3667,3.3325,3.3325,0,0,1-2.5878.9491,14.9934,14.9934,0,0,1-4.8451-.6091.8262.8262,0,0,1-.7189-.95c.03-3.5407.01-7.0819.0145-10.6229,0-.3719-.03-.7474.3887-.9939a15.6119,15.6119,0,0,1,6.065-2.5043,2.42,2.42,0,0,1,2.945,2.0443A26.2639,26.2639,0,0,1,97.2993,31.1682Z" transform="translate(-8.6574)" style="fill:#1a181c"/><path d="M164.5206,21.4943c-.1308-3.9959-1.956-5.7259-5.938-6.1267a24.4969,24.4969,0,0,0-6.8108.5072c-2.8859.5187-2.5063-.06-2.558,2.9825-.0167.9819.3156,1.2925,1.31,1.0187a34.88,34.88,0,0,1,6.3921-1.165c2.1156-.1747,3.1459.6877,3.3341,2.7845.051.5687.0864,1.1421.1277,1.7068.06.8186-.1853.94-.9.9414a35.7094,35.7094,0,0,0-6.9328.5732c-3.5345.7034-4.9359,2.1586-5.2224,5.7422-.4293,5.3707,1.6957,8.058,7.1361,7.3477a10.6431,10.6431,0,0,0,2.0846-.5711,19.576,19.576,0,0,0,3.8042-2.0883c.1859,2.2147.1859,2.2146,2.3715,2.2123.2666,0,.5334-.0059.8,0,.7725.0183,1.0978-.3782,1.0942-1.1264C164.59,31.32,164.6813,26.4031,164.5206,21.4943Zm-4.6224,10.6049a13.9607,13.9607,0,0,1-5.3525,2.4608c-1.9714.407-2.9645-.3587-3.1848-2.3668-.3873-3.53.4487-4.5242,3.95-4.6752.6082-.0262,1.2185-.0037,1.8278-.0037v.0118c.8761,0,1.7525.0148,2.6282-.0058.4876-.0115.6769.1743.6645.67-.0248.99-.02,1.9817.0035,2.9718A1.0617,1.0617,0,0,1,159.8982,32.0991Z" transform="translate(-8.6574)" style="fill:#1a181c"/><path d="M124.6247,21.4943c-.1308-3.9959-1.956-5.7259-5.938-6.1267a24.4969,24.4969,0,0,0-6.8108.5072c-2.8859.5187-2.5063-.06-2.558,2.9825-.0167.9819.3156,1.2925,1.31,1.0187a34.88,34.88,0,0,1,6.3921-1.165c2.1156-.1747,3.1459.6877,3.3341,2.7845a16.1669,16.1669,0,0,0,.1277,1.7068c.161.8087-.1853.94-.9.9414a35.7094,35.7094,0,0,0-6.9328.5732c-3.5345.7034-4.9359,2.1586-5.2224,5.7422-.4293,5.3707,1.6957,8.058,7.1361,7.3477a10.6431,10.6431,0,0,0,2.0846-.5711,19.576,19.576,0,0,0,3.8042-2.0883c.1859,2.2147.1859,2.2146,2.3715,2.2123.2666,0,.5334-.0059.8,0,.7725.0183,1.0978-.3782,1.0942-1.1264C124.6939,31.32,124.7854,26.4031,124.6247,21.4943Zm-4.6224,10.6049A13.9607,13.9607,0,0,1,114.65,34.56c-1.9714.407-2.9645-.3587-3.1848-2.3668-.3873-3.53.4487-4.5242,3.95-4.6752.6082-.0262,1.2185-.0037,1.8278-.0037v.0118c.8761,0,1.7525.0148,2.6282-.0058.4876-.0115.6769.1743.6645.67-.0248.99-.02,1.9817.0035,2.9718A1.0617,1.0617,0,0,1,120.0022,32.0991Z" transform="translate(-8.6574)" style="fill:#1a181c"/><path d="M223.4819,28.0021c1.7491.06,3.5017.0188,5.2529.0183s3.5055-.0632,5.2526.0226c1.0836.0532,1.42-.42,1.4412-1.3849a30.1283,30.1283,0,0,0-.2371-5.1272c-.597-3.9969-2.3527-5.6755-6.3816-6.2136a15.5312,15.5312,0,0,0-4.2094.1116c-3.2938.4565-5.1811,2.0726-5.8316,5.3561a31.9677,31.9677,0,0,0-.0469,11.4615c.509,3.098,2.431,4.7708,5.4277,5.3653a25.5617,25.5617,0,0,0,8.52-.0834c2.5985-.3566,2.5626-.4018,2.3634-3.0161-.0709-.931-.4012-1.1638-1.297-.9264a22.1565,22.1565,0,0,1-5.8471.9088c-4.1954-.036-5.19-.7763-5.2872-4.7143a7.1228,7.1228,0,0,0-.038-.7982C222.4651,28.266,222.6913,27.9747,223.4819,28.0021Zm-.914-4.0214a1.5074,1.5074,0,0,0,.002-.2282c.0348-4.445,2.99-6.3646,7.1609-4.653a2.3663,2.3663,0,0,1,1.4183,1.67,14.8182,14.8182,0,0,1,.2007,3.52c.024.6158-.4154.52-.7806.5217-1.2185.0065-2.437.0024-3.6555.0024V24.81c-1.18,0-2.3624-.0359-3.5407.014C222.7073,24.8525,222.4633,24.6208,222.568,23.9807Z" transform="translate(-8.6574)" style="fill:#1a181c"/><path d="M243.6644,36.3463c-.1424.1035-.2666.2287-.2963.2093a.879.879,0,0,1-.26-.2962c-.01-.0173.1546-.1885.1953-.1733A1.702,1.702,0,0,1,243.6644,36.3463Z" transform="translate(-8.6574)" style="fill:#232026"/><path d="M148.5015,22.748" transform="translate(-8.6574)" style="fill:#fefefe"/><polygon points="46.111 28.881 66.682 28.881 49.927 48 0 48 25.869 28.897 46.111 28.881" style="fill:#61c6ea"/><path d="M53.188,12.1289,40.5642,36.5031s-.7146,1.707.4764,2.62a43.9408,43.9408,0,0,0,4.9622,2.6994,2.5219,2.5219,0,0,0,2.4612-1.35C49.377,38.885,60.77,16.2178,60.77,16.2178s.5161-1.707-.6749-2.3421-4.0094-2.1437-4.0094-2.1437S54.18,10.66,53.188,12.1289Z" transform="translate(-8.6574)" style="fill:#1a181c"/><path d="M63.1306,9.6052a4.3085,4.3085,0,0,1-2.3793-.84c-.8875-.46-1.7689-.9367-2.6231-1.4553a1.9513,1.9513,0,0,1-.84-2.5934A20.1832,20.1832,0,0,1,59.162,1.03,2.02,2.02,0,0,1,61.8755.2253a42.0413,42.0413,0,0,1,3.9059,1.9813,2.3425,2.3425,0,0,1,.8143,3.0728A28.8637,28.8637,0,0,1,64.7546,8.728,1.6564,1.6564,0,0,1,63.1306,9.6052Z" transform="translate(-8.6574)" style="fill:#1a181d"/></svg>